<svg xmlns="http://www.w3.org/2000/svg" version="1.1" xmlns:xlink="http://www.w3.org/1999/xlink" xmlns:svgjs="http://svgjs.com/svgjs" width="1440" height="560" preserveAspectRatio="none" viewBox="0 0 1440 560">
    <g mask="url(&quot;#SvgjsMask1039&quot;)" fill="none">
        <rect width="1440" height="560" x="0" y="0" fill="url(#SvgjsLinearGradient1040)"></rect>
        <path d="M230.18 267.11 a129.56 129.56 0 1 0 259.12 0 a129.56 129.56 0 1 0 -259.12 0z" fill="rgba(28, 83, 142, 0.4)" class="triangle-float3"></path>
        <path d="M607.96 500.51 a103.5 103.5 0 1 0 207 0 a103.5 103.5 0 1 0 -207 0z" fill="rgba(28, 83, 142, 0.4)" class="triangle-float3"></path>
        <path d="M242.26960647919728 552.8637423683962L327.4424395532853 534.7596978224733 224.16556193327435 467.69090929430814z" fill="rgba(28, 83, 142, 0.4)" class="triangle-float2"></path>
        <path d="M1185.4 229.31 a174.21 174.21 0 1 0 348.42 0 a174.21 174.21 0 1 0 -348.42 0z" fill="rgba(28, 83, 142, 0.4)" class="triangle-float1"></path>
        <path d="M128.75 199.95 a113.29 113.29 0 1 0 226.58 0 a113.29 113.29 0 1 0 -226.58 0z" fill="rgba(28, 83, 142, 0.4)" class="triangle-float1"></path>
        <path d="M1175.9990508373746 164.48158737518776L1267.1530299101746 211.03633771017863 1264.0304423522336 121.61712950290126z" fill="rgba(28, 83, 142, 0.4)" class="triangle-float3"></path>
        <path d="M1116.78 535.57 a129.04 129.04 0 1 0 258.08 0 a129.04 129.04 0 1 0 -258.08 0z" fill="rgba(28, 83, 142, 0.4)" class="triangle-float1"></path>
        <path d="M418.13570245140863 314.5074279079165L520.7229540191868 298.25920348392157 445.0569915993052 152.50243834425197z" fill="rgba(28, 83, 142, 0.4)" class="triangle-float1"></path>
        <path d="M128.21935101784447 426.2867356193565L32.362101936966454 473.03943984637567 174.97205524486367 522.1439847002345z" fill="rgba(28, 83, 142, 0.4)" class="triangle-float3"></path>
        <path d="M873.191,294.413C933.316,294.845,996.996,278.487,1027.168,226.478C1057.423,174.327,1040.547,110.575,1009.997,58.596C979.939,7.454,932.512,-35.367,873.191,-35.499C813.681,-35.632,765.11,6.463,735.325,57.983C705.505,109.564,692.987,172.825,722.999,224.294C752.829,275.45,813.975,293.988,873.191,294.413" fill="rgba(28, 83, 142, 0.4)" class="triangle-float1"></path>
    </g>
    <defs>
        <mask id="SvgjsMask1039">
            <rect width="1440" height="560" fill="#ffffff"></rect>
        </mask>
        <linearGradient x1="15.28%" y1="-39.29%" x2="84.72%" y2="139.29%" gradientUnits="userSpaceOnUse" id="SvgjsLinearGradient1040">
            <stop stop-color="#0e2a47" offset="0"></stop>
            <stop stop-color="#00459e" offset="1"></stop>
        </linearGradient>
        <style>
            @keyframes float1 {
                0%{transform: translate(0, 0)}
                50%{transform: translate(-10px, 0)}
                100%{transform: translate(0, 0)}
            }

            .triangle-float1 {
                animation: float1 5s infinite;
            }

            @keyframes float2 {
                0%{transform: translate(0, 0)}
                50%{transform: translate(-5px, -5px)}
                100%{transform: translate(0, 0)}
            }

            .triangle-float2 {
                animation: float2 4s infinite;
            }

            @keyframes float3 {
                0%{transform: translate(0, 0)}
                50%{transform: translate(0, -10px)}
                100%{transform: translate(0, 0)}
            }

            .triangle-float3 {
                animation: float3 6s infinite;
            }
        </style>
    </defs>
</svg>